<svg xmlns="http://www.w3.org/2000/svg" width="24" height="24" fill="none" viewBox="0 0 24 24">
  <path fill="#AB222E" fill-rule="evenodd" d="M15.782 7.532a.75.75 0 0 1 1.06 0l3.938 3.938a.75.75 0 0 1 0 1.06l-3.937 3.938a.75.75 0 1 1-1.06-1.06L19.188 12l-3.407-3.407a.75.75 0 0 1 0-1.06Z" clip-rule="evenodd"/>
  <path fill="#AB222E" fill-rule="evenodd" d="M9 12a.75.75 0 0 1 .75-.75h10.5a.75.75 0 0 1 0 1.5H9.75A.75.75 0 0 1 9 12Z" clip-rule="evenodd"/>
  <path fill="#AB222E" fill-rule="evenodd" d="M3.44 3.44A1.5 1.5 0 0 1 4.5 3h5.25a.75.75 0 0 1 0 1.5H4.5v15h5.25a.75.75 0 0 1 0 1.5H4.5A1.5 1.5 0 0 1 3 19.5v-15c0-.398.158-.78.44-1.06Z" clip-rule="evenodd"/>
</svg>
