<svg xmlns="http://www.w3.org/2000/svg" width="24" height="24" fill="none" viewBox="0 0 24 24">
  <path fill="#3E3A40" fill-rule="evenodd" d="m12 4.52-7.125 6.474v8.131h3.75V15a1.875 1.875 0 0 1 1.875-1.875h3A1.875 1.875 0 0 1 15.375 15v4.125h3.75v-8.13L12 4.518Zm-1.264-1.892a1.875 1.875 0 0 1 2.53.001l7.497 6.813.016.015a1.903 1.903 0 0 1 .596 1.353v8.69a1.875 1.875 0 0 1-1.875 1.875H15a1.875 1.875 0 0 1-1.875-1.875v-4.125h-2.25V19.5A1.875 1.875 0 0 1 9 21.375H4.5A1.875 1.875 0 0 1 2.625 19.5v-8.69a1.903 1.903 0 0 1 .596-1.353l.016-.015 7.497-6.813.002-.001Z" clip-rule="evenodd"/>
</svg>
