<svg xmlns="http://www.w3.org/2000/svg" width="25" height="24" fill="none" viewBox="0 0 25 24">
  <path fill="#3E3A40" fill-rule="evenodd" d="M11.787 1.324a1.875 1.875 0 0 1 1.688.516l9.783 9.783a1.864 1.864 0 0 1 0 2.657l-8.478 8.478a1.864 1.864 0 0 1-2.657 0L2.34 12.975l-.001-.001a1.876 1.876 0 0 1-.515-1.687v-.004l1.51-7.566c.09-.445.438-.794.883-.883l7.566-1.51.22 1.104-.216-1.104Zm.095 2.106Zm0 0Zm.142.141 9.38 9.38-7.952 7.953-9.38-9.38 1.322-6.63 6.63-1.323Z" clip-rule="evenodd"/>
  <path fill="#3E3A40" d="M8.375 9.375a1.5 1.5 0 1 0 0-3 1.5 1.5 0 0 0 0 3Z"/>
</svg>
